<svg xmlns="http://www.w3.org/2000/svg" xmlns:xlink="http://www.w3.org/1999/xlink" version="1.1" width="375" height="375" viewBox="0 0 375 375">
<defs>
<clipPath id="clip_0">
<path transform="matrix(.24,0,0,.24,0,0)" d="M0 0H1562.5V1562.5H0Z" fill-rule="evenodd"/>
</clipPath>
<clipPath id="clip_1">
<path transform="matrix(.24,0,0,.24,0,0)" d="M0 0H1562.5V1562.5H0Z" fill-rule="evenodd"/>
</clipPath>
<clipPath id="clip_2">
<path transform="matrix(.24,0,0,.24,0,0)" d="M434.69819 822.3421H801.6763V885.3382H434.69819Z" fill-rule="evenodd"/>
</clipPath>
<clipPath id="clip_3">
<path transform="matrix(.24,0,0,.24,0,0)" d="M349.06996 756.0304H801.6763V819.0265H349.06996Z" fill-rule="evenodd"/>
</clipPath>
<clipPath id="clip_4">
<path transform="matrix(.24,0,0,.24,0,0)" d="M373.53517 689.7187H801.6763V752.7148H373.53517Z" fill-rule="evenodd"/>
</clipPath>
<clipPath id="clip_5">
<path transform="matrix(.24,0,0,.24,0,0)" d="M190.04608 453.2487H801.6763V516.24478H190.04608Z" fill-rule="evenodd"/>
</clipPath>
<clipPath id="clip_6">
<path transform="matrix(.24,0,0,.24,0,0)" d="M128.88306 386.937H801.6763V449.9331H128.88306Z" fill-rule="evenodd"/>
</clipPath>
<clipPath id="clip_7">
<path transform="matrix(.24,0,0,.24,0,0)" d="M67.72005 320.6253H801.6763V383.62144H67.72005Z" fill-rule="evenodd"/>
</clipPath>
<clipPath id="clip_8">
<path transform="matrix(.24,0,0,.24,0,0)" d="M422.48707 290.7932H1494.362V1237.6682H422.48707Z" fill-rule="evenodd"/>
</clipPath>
</defs>
<g clip-path="url(#clip_0)">
<path transform="matrix(.75,0,0,.75,0,0)" d="M0 0H500V500H0Z" fill="#ffffff"/>
</g>
<g clip-path="url(#clip_1)">
<path transform="matrix(.75,0,0,.75,0,0)" d="M0 0H500V500H0Z" fill="#ffffff"/>
</g>
<g clip-path="url(#clip_2)">
<path transform="matrix(0,-.28448547,.28448547,0,16.252812,212.48116)" d="M5.3145306 309.59315H47.830774C48.53552 309.59315 49.213445 309.72798 49.86455 309.99766 50.515657 310.26737 51.090375 310.6514 51.58871 311.14973 52.087045 311.64805 52.471055 312.22279 52.74075 312.87388 53.010446 313.52497 53.145299 314.2029 53.1453 314.90769V619.1863C53.145299 619.891 53.010446 620.5689 52.74075 621.22 52.471055 621.8711 52.087045 622.4458 51.58871 622.94418 51.090375 623.4425 50.515657 623.8265 49.86455 624.0961 49.213445 624.3659 48.53552 624.5008 47.830774 624.5008H5.3145306C4.6097795 624.5008 3.9318519 624.3659 3.2807475 624.0961 2.6296426 623.8265 2.0549236 623.4425 1.5565899 622.94418 1.0582559 622.4458 .6742408 621.8711 .40454448 621.22 .13484815 620.5689 0 619.891 0 619.1863V314.90769C0 314.2029 .13484815 313.52497 .40454448 312.87385 .6742408 312.22276 1.0582559 311.64805 1.5565899 311.14973 2.0549236 310.6514 2.6296426 310.26737 3.2807475 309.99766 3.9318519 309.72798 4.6097795 309.59315 5.3145306 309.59315Z" fill="#9acbe7"/>
</g>
<g clip-path="url(#clip_3)">
<path transform="matrix(0,-.28448547,.28448547,0,16.252812,212.48116)" d="M61.256956 237.35474H103.77319C104.47794 237.35474 105.15587 237.48958 105.80697 237.75925 106.45806 238.02895 107.032779 238.41297 107.53111 238.9113 108.02945 239.40962 108.41347 239.98433 108.68316 240.63544 108.952869 241.28656 109.087718 241.96451 109.08772 242.66927V619.1863C109.087718 619.891 108.952869 620.5689 108.68317 621.22 108.41347 621.8711 108.02946 622.4458 107.53113 622.94418 107.03279 623.4425 106.45807 623.8265 105.80697 624.0961 105.15587 624.3659 104.47794 624.5008 103.77319 624.5008H61.256956C60.5522 624.5008 59.87427 624.3659 59.223169 624.0961 58.572065 623.8265 57.997346 623.4425 57.499013 622.94418 57.000677 622.4458 56.616659 621.8711 56.346963 621.22 56.077268 620.5689 55.94242 619.891 55.942426 619.1863V242.66927C55.94242 241.96451 56.077268 241.28656 56.346963 240.63545 56.616659 239.98435 57.000677 239.40962 57.499013 238.9113 57.997346 238.41297 58.572065 238.02895 59.223169 237.75925 59.87427 237.48958 60.5522 237.35474 61.256956 237.35474Z" fill="#5896bb"/>
</g>
<g clip-path="url(#clip_4)">
<path transform="matrix(0,-.28448547,.28448547,0,16.252812,212.48116)" d="M117.19938 257.9943H159.71562C160.42035 257.9943 161.09827 258.12913 161.74938 258.3988 162.40048 258.6685 162.9752 259.05253 163.47356 259.55085 163.97188 260.04917 164.35588 260.6239 164.62558 261.275 164.89528 261.92613 165.03014 262.60408 165.03015 263.30885V619.18637C165.03014 619.89108 164.89528 620.569 164.62558 621.22006 164.35588 621.8711 163.97188 622.44589 163.47356 622.9442 162.9752 623.4425 162.40048 623.8265 161.74938 624.0962 161.09827 624.3659 160.42035 624.5008 159.71562 624.50088H117.19938C116.49462 624.5008 115.81669 624.3659 115.16558 624.0962 114.51447 623.8265 113.93976 623.4425 113.44143 622.9442 112.943088 622.44589 112.559078 621.8711 112.28938 621.22006 112.019687 620.569 111.88484 619.89108 111.88485 619.18637V263.30885C111.88484 262.60408 112.019687 261.92613 112.28938 261.275 112.559078 260.6239 112.943088 260.04917 113.44143 259.55085 113.93976 259.05253 114.51447 258.6685 115.16557 258.3988 115.81669 258.12913 116.49462 257.9943 117.19938 257.9943Z" fill="#00458a"/>
</g>
<g clip-path="url(#clip_5)">
<path transform="matrix(0,-.28448547,.28448547,0,16.252812,212.48116)" d="M316.6922 103.19771H359.2084C359.91316 103.19771 360.59107 103.33255 361.24217 103.60224 361.89326 103.87194 362.468 104.25596 362.96635 104.754299 363.46464 105.252628 363.84864 105.82734 364.11836 106.47844 364.38807 107.12955 364.52293 107.80748 364.52296 108.51224V619.1863C364.52293 619.891 364.38807 620.5689 364.11836 621.22 363.84864 621.8711 363.46464 622.4458 362.96635 622.94418 362.468 623.4425 361.89326 623.8265 361.24217 624.0961 360.59107 624.3659 359.91316 624.5008 359.2084 624.5008H316.6922C315.98744 624.5008 315.30949 624.3659 314.6584 624.0961 314.00727 623.8265 313.43254 623.4425 312.9342 622.94418 312.43586 622.4458 312.05186 621.8711 311.78218 621.22 311.51249 620.5689 311.37763 619.891 311.37767 619.1863V108.51224C311.37763 107.80748 311.51249 107.129558 311.78218 106.478458 312.05186 105.82734 312.43586 105.252628 312.9342 104.754299 313.43254 104.25596 314.00727 103.87194 314.6584 103.60225 315.30949 103.33256 315.98744 103.19771 316.6922 103.19771Z" fill="#9acbe7"/>
</g>
<g clip-path="url(#clip_6)">
<path transform="matrix(0,-.28448547,.28448547,0,16.252812,212.48116)" d="M372.6346 51.598855H415.15083C415.85557 51.598855 416.53349 51.7337 417.18458 52.00339 417.83567 52.27309 418.4104 52.65711 418.90876 53.15544 419.40708 53.653776 419.79109 54.228494 420.06077 54.879598 420.33045 55.5307 420.46534 56.20863 420.46537 56.913385V619.1863C420.46534 619.891 420.33045 620.5689 420.06077 621.22 419.79106 621.8711 419.40705 622.4458 418.90873 622.94418 418.41038 623.4425 417.83567 623.8265 417.18458 624.0961 416.53349 624.3659 415.85557 624.5008 415.15083 624.5008H372.6346C371.92988 624.5008 371.25193 624.3659 370.6008 624.0961 369.9497 623.8265 369.37498 623.4425 368.87666 622.94418 368.37828 622.4458 367.99427 621.8711 367.72459 621.22 367.4549 620.5689 367.32005 619.891 367.32008 619.1863V56.913385C367.32005 56.20863 367.4549 55.5307 367.7246 54.879598 367.99427 54.228494 368.37828 53.653776 368.87666 53.15544 369.37498 52.65711 369.9497 52.27309 370.60084 52.003396 371.25193 51.7337 371.92988 51.598855 372.6346 51.598855Z" fill="#5896bb"/>
</g>
<g clip-path="url(#clip_7)">
<path transform="matrix(0,-.28448547,.28448547,0,16.252812,212.48116)" d="M428.57704 0H471.09324C471.79795 0 472.47587 .13484815 473.12699 .40454448 473.77809 .6742408 474.35279 1.0582559 474.85118 1.5565899 475.34947 2.0549236 475.73347 2.6296426 476.00318 3.2807475 476.27287 3.9318519 476.40776 4.6097795 476.40779 5.3145306V619.1863C476.40776 619.891 476.2729 620.5689 476.0032 621.22 475.73347 621.8711 475.34947 622.4458 474.85118 622.94418 474.35279 623.4425 473.77809 623.8265 473.12699 624.0961 472.47587 624.3659 471.79795 624.5008 471.09324 624.5008H428.57704C427.87226 624.5008 427.1943 624.3659 426.54319 624.0961 425.89207 623.8265 425.31736 623.4425 424.81907 622.94418 424.32069 622.4458 423.93666 621.8711 423.66697 621.22 423.39729 620.5689 423.26246 619.891 423.26249 619.1863V5.3145306C423.26246 4.6097795 423.39729 3.9318519 423.66697 3.2807475 423.93666 2.6296426 424.32069 2.0549236 424.81907 1.5565899 425.31736 1.0582559 425.89207 .6742408 426.54319 .40454448 427.1943 .13484815 427.87226 0 428.57704 0Z" fill="#00458a"/>
</g>
<g clip-path="url(#clip_8)">
<path transform="matrix(.30882354,0,0,-.30936546,101.39689,289.43867)" d="M287 628C287 632.6667 268 635.6667 230 637 214.66667 637 204.66667 637.3333 200 638 195.33333 638.6667 193 641.6667 193 647 193 652.3333 194.33333 659 197 667 199.66667 675 202 680 204 682 205.33333 682.6667 271.66667 683 403 683 514.3333 682.3333 576.6667 682 590 682 603.3333 682 616.6667 680 630 676 678 664.6667 718.6667 638.3333 752 597 785.3333 555.6667 802.3333 500.33335 803 431 803 327 767.3333 233.66667 696 151 624.6667 68.33333 540.6667 19 444 3L430 1 236 0H125 72C56 0 45.666669 .6666666 41 2 36.333333 3.3333336 33.666669 6.333333 33 11 33 12.333333 34 17 36 25 38.666669 35.666669 41.333333 41.666669 44 43 46.666669 44.333333 54.333333 45.333333 67 46 85 46 105 47 127 49 136.33333 51 142.66667 55 146 61 148 63.666669 172 156.33333 218 339 264 521.6667 287 618 287 628ZM703 469C703 494.33335 699.3333 517 692 537 684.6667 557 676 572.6667 666 584 656 595.3333 643.6667 605 629 613 614.3333 621 601.3333 626.3333 590 629 578.6667 631.6667 567 634 555 636 553.6667 636 549 636 541 636 533 636 523.3333 636 512 636 500.66667 636 489.66667 636.3333 479 637H436C406.66667 637 390 633.6667 386 627 384.66667 624.3333 360.33335 528.3334 313 339 265.66667 149.66666 242 54 242 52 242 49.333333 245.66667 48 253 48 260.33335 48 286 47.666669 330 47 333.33335 47 339.66667 47 349 47 358.33335 47 366.33335 46.666669 373 46 457 46 526.3333 73.33333 581 128 605 152 624.6667 180 640 212 655.3333 244 669.6667 286.33335 683 339 696.3333 391.66667 703 435 703 469Z"/>
<path transform="matrix(.30882354,0,0,-.30936546,101.39689,289.43867)" stroke-width="10" stroke-linecap="butt" stroke-miterlimit="4" stroke-linejoin="miter" fill="none" stroke="#000000" d="M287 628C287 632.6667 268 635.6667 230 637 214.66667 637 204.66667 637.3333 200 638 195.33333 638.6667 193 641.6667 193 647 193 652.3333 194.33333 659 197 667 199.66667 675 202 680 204 682 205.33333 682.6667 271.66667 683 403 683 514.3333 682.3333 576.6667 682 590 682 603.3333 682 616.6667 680 630 676 678 664.6667 718.6667 638.3333 752 597 785.3333 555.6667 802.3333 500.33335 803 431 803 327 767.3333 233.66667 696 151 624.6667 68.33333 540.6667 19 444 3L430 1 236 0H125 72C56 0 45.666669 .6666666 41 2 36.333333 3.3333336 33.666669 6.333333 33 11 33 12.333333 34 17 36 25 38.666669 35.666669 41.333333 41.666669 44 43 46.666669 44.333333 54.333333 45.333333 67 46 85 46 105 47 127 49 136.33333 51 142.66667 55 146 61 148 63.666669 172 156.33333 218 339 264 521.6667 287 618 287 628ZM703 469C703 494.33335 699.3333 517 692 537 684.6667 557 676 572.6667 666 584 656 595.3333 643.6667 605 629 613 614.3333 621 601.3333 626.3333 590 629 578.6667 631.6667 567 634 555 636 553.6667 636 549 636 541 636 533 636 523.3333 636 512 636 500.66667 636 489.66667 636.3333 479 637H436C406.66667 637 390 633.6667 386 627 384.66667 624.3333 360.33335 528.3334 313 339 265.66667 149.66666 242 54 242 52 242 49.333333 245.66667 48 253 48 260.33335 48 286 47.666669 330 47 333.33335 47 339.66667 47 349 47 358.33335 47 366.33335 46.666669 373 46 457 46 526.3333 73.33333 581 128 605 152 624.6667 180 640 212 655.3333 244 669.6667 286.33335 683 339 696.3333 391.66667 703 435 703 469Z"/>
</g>
</svg>
